<svg style="position: absolute; width: 0; height: 0;" width="0" height="0" version="1.1" xmlns="http://www.w3.org/2000/svg" xmlns:xlink="http://www.w3.org/1999/xlink">
<defs>
<symbol id="ico-collapse" viewBox="0 0 1024 1024">
  <title>collapse</title>
  <path class="path1" d="M512 582.432l364.745-369.775 113.197 113.197-477.939 485.487-477.939-482.971 113.197-113.197 364.745 367.258z"></path>
</symbol>
<symbol id="ico-loading" viewBox="0 0 1024 1024">
	<title>loading</title>
	<path class="path1" d="M512 916.011c-222.763 0-404.011-181.248-404.011-404.011h108.949c0 162.688 132.373 295.061 295.061 295.061s295.061-132.373 295.061-295.061c0-162.688-132.373-295.061-295.061-295.061v-108.949c222.763 0 404.011 181.227 404.011 404.011s-181.248 404.011-404.011 404.011z"></path>
</symbol>
<symbol id="ico-arr_left" viewBox="0 0 1024 1024">
	<title>arr_left</title>
	<path class="path1" d="M457.003 512l230.528 228.224-71.147 70.443-301.675-298.667 301.675-298.667 71.147 70.443-230.528 228.224z"></path>
</symbol>
<symbol id="ico-arr_right" viewBox="0 0 1024 1024">
	<title>arr_right</title>
	<path class="path1" d="M314.709 283.776l71.147-70.443 301.675 298.667-301.675 298.667-71.147-70.443 230.528-228.224-230.528-228.224z"></path>
</symbol>
<symbol id="ico-arrow_left" viewBox="0 0 1024 1024">
	<title>arrow_left</title>
	<path class="path1" d="M235.093 512l471.915 469.333 60.992-60.373-410.944-408.96 410.944-408.96-60.992-60.373-471.915 469.333z"></path>
</symbol>
<symbol id="ico-arrow_right" viewBox="0 0 1024 1024">
	<title>arrow_right</title>
	<path class="path1" d="M296.085 42.667l-60.992 60.373 410.944 408.96-410.944 408.96 60.992 60.373 471.915-469.333-471.915-469.333z"></path>
</symbol>
<symbol id="ico-close" viewBox="0 0 1024 1024">
	<title>close</title>
	<path class="path1" d="M958.080 156.288l-90.368-90.368-356.672 356.672-356.672-356.672-90.368 90.368 356.672 356.672-356.672 356.672 90.368 90.368 356.672-356.672 356.672 356.672 90.368-90.368-356.672-356.672 356.672-356.672z"></path>
</symbol>
<symbol id="ico-email" viewBox="0 0 1024 1024">
	<title>email</title>
	<path class="path1" d="M853.504 170.667h-683.008c-46.848 0-84.736 38.315-84.736 85.163l-0.427 512.341c0 46.848 38.315 85.163 85.163 85.163h683.008c46.848 0 85.163-38.315 85.163-85.163v-512.341c0-46.848-38.315-85.163-85.163-85.163zM853.333 341.163l-341.333 213.504-341.333-213.504v-85.163l341.333 213.333 341.333-213.333v85.163z"></path>
</symbol>
<symbol id="ico-logo" viewBox="0 0 2731 1024">
	<title>logo</title>
	<path class="path1" d="M2543.595 363.371c-10.944-27.797-25.877-51.157-44.864-70.101-18.965-18.923-41.259-33.344-66.901-43.243-25.643-9.877-53.333-14.827-83.072-14.827-38.293 0-74.773 8.021-109.461 24.043-23.488 10.859-44.864 24.832-64.512 41.451l9.899-50.667c-14.016-6.464-28.203-9.707-42.539-9.707-25.643 0-50.432 9.707-74.347 29.163-23.936 19.435-46.144 47.253-66.645 83.392v-60.373c0-17.408-4.608-29.931-13.845-37.611-9.216-7.68-22.037-11.52-38.443-11.52h-82.027l-12.971 106.624c-0.384-1.472-0.683-3.093-1.088-4.544-7.36-25.408-17.621-46.293-30.763-62.677-13.163-16.363-28.8-28.395-46.912-36.075-18.133-7.68-38.123-11.52-59.989-11.52-33.835 0-65.621 9.387-95.36 28.139-29.739 18.773-56.747 44.523-81.003 77.248v-48.085c0-17.408-4.608-29.931-13.845-37.611-9.216-7.68-22.037-11.52-38.464-11.52h-82.027l-14.016 116.16c-10.795-26.069-25.088-48.256-43.157-66.283-18.965-18.923-41.28-33.344-66.923-43.243-25.643-9.877-53.312-14.827-83.072-14.827-38.272 0-74.773 8.021-109.461 24.043-34.709 16.043-65.195 38.379-91.52 67.029-17.088 18.603-31.659 39.701-44.224 62.848-2.261-8.896-4.864-17.557-8.085-25.749-10.944-27.797-25.899-51.157-44.864-70.101-18.965-18.923-41.28-33.344-66.901-43.243-25.643-9.877-53.312-14.827-83.072-14.827-38.293 0-74.773 8.021-109.461 24.043-34.688 16.043-65.195 38.379-91.52 67.029-25.365 27.605-45.589 60.309-60.949 97.877-6.293-11.349-13.291-21.931-21.867-30.848-12.821-13.291-27.349-24.384-43.584-33.259s-32.811-16.704-49.728-23.531c-16.917-6.827-33.408-13.12-49.472-18.923s-30.507-12.181-43.328-19.179c-12.821-6.976-23.061-15.083-30.763-24.299s-11.541-20.629-11.541-34.283c0-12.608 1.963-24.213 5.888-34.795 3.925-10.56 9.835-19.776 17.685-27.627 7.872-7.851 17.685-13.995 29.483-18.432 11.797-4.416 25.557-6.656 41.28-6.656 17.088 0 31.957 2.56 44.608 7.68s23.851 10.752 33.579 16.875c9.749 6.144 18.539 11.776 26.411 16.875 7.872 5.12 15.723 7.68 23.595 7.68 8.213 0 15.296-1.877 21.269-5.632s11.883-9.728 17.685-17.899l50.24-68.565c-9.92-12.608-22.037-24.299-36.395-35.051s-30.251-20.032-47.68-27.883c-17.429-7.829-36.139-13.973-56.149-18.411-20.011-4.395-40.619-6.613-61.803-6.613-41.365 0-78.613 6.997-111.765 20.971-33.173 13.995-61.376 32.747-84.608 56.277-23.253 23.552-41.109 50.581-53.589 81.109s-18.709 62.336-18.709 95.424c0 28.651 3.84 52.779 11.541 72.405 7.701 19.605 17.771 36.16 30.251 49.621 12.48 13.483 26.752 24.384 42.816 32.747s32.469 15.616 49.216 21.739c16.747 6.144 33.152 11.861 49.216 17.131 16.064 5.291 30.336 11.349 42.816 18.155 12.48 6.827 23.019 14.848 30.251 25.067 6.976 9.856 10.069 21.269 12.117 37.355 2.944 23.083-4.331 58.453-25.963 75.456-23.040 18.112-40.939 25.323-72.043 25.323-21.205 0-39.061-3.328-53.589-9.984s-27.264-13.973-38.208-21.995c-10.944-8-20.949-15.36-29.995-21.995-9.067-6.656-18.389-9.984-27.947-9.984-7.189 0-14.357 1.877-21.547 5.632s-12.992 8.533-17.429 14.336l-59.435 77.803c11.968 14.677 26.496 27.968 43.584 39.915s35.627 22.251 55.637 30.955c19.989 8.704 40.853 15.445 62.549 20.203 21.696 4.779 43.328 7.168 64.853 7.168 43.413 0 82.453-7.253 117.163-21.739 34.688-14.485 64.171-34.112 88.448-58.837 16.96-17.28 30.997-36.736 42.453-58.112 1.152 3.499 2.133 7.147 3.435 10.517 10.773 27.797 25.643 51.157 44.608 70.101 18.965 18.923 41.365 33.344 67.157 43.243 25.813 9.899 53.568 14.827 83.307 14.827 38.272 0 74.773-8.107 109.461-24.299s65.195-38.699 91.52-67.541c16.981-18.581 31.467-39.616 43.968-62.613 2.261 9.088 4.843 17.941 8.085 26.283 10.773 27.797 25.643 51.157 44.608 70.101 18.965 18.923 41.344 33.344 67.157 43.243s53.589 14.827 83.307 14.827c38.272 0 74.773-8.107 109.461-24.299s65.195-38.699 91.52-67.541c12.395-13.568 23.488-28.416 33.493-44.331l-43.008 356.672h156.992l28.907-259.904c13.333 11.947 28.715 21.483 46.144 28.651s37.248 10.731 59.477 10.731c34.176 0 66.923-9.28 98.197-27.883 31.275-18.581 58.88-43.755 82.816-75.477 13.483-17.877 25.237-37.504 35.627-58.581l-18.709 153.728h155.861l28.715-238.421c12.629-52.523 29.141-90.645 49.472-114.347 20.117-23.467 43.2-35.221 69.184-35.477-7.531 13.504-14.528 27.541-20.48 42.624-15.552 39.403-23.339 82.624-23.339 129.707 0 36.16 5.376 68.139 16.149 95.936s25.643 51.157 44.608 70.101c18.987 18.923 41.365 33.344 67.179 43.243 25.792 9.899 53.568 14.827 83.307 14.827 38.272 0 74.773-8.107 109.461-24.299s65.195-38.699 91.52-67.541c26.325-28.821 47.253-62.933 62.805-102.336s23.339-82.283 23.339-128.683c0-36.117-5.483-68.096-16.405-95.893zM793.429 539.371c-5.312 24.725-12.821 46.379-22.571 64.981s-21.611 33.259-35.627 44.011c-14.016 10.731-29.909 16.107-47.68 16.107-23.573 0-40.597-8.448-51.008-25.323-10.432-16.896-15.637-44.267-15.637-82.112 0-27.968 2.645-54.4 7.957-79.296 5.291-24.896 12.821-46.549 22.549-64.981 9.749-18.432 21.611-33.003 35.627-43.755s29.909-16.107 47.68-16.107c23.595 0 40.576 8.277 51.008 24.811 10.432 16.555 15.637 44.096 15.637 82.624 0.021 27.968-2.624 54.315-7.936 79.040zM1241.557 539.371c-5.312 24.725-12.821 46.379-22.549 64.981-9.749 18.603-21.632 33.259-35.627 44.011-14.016 10.731-29.909 16.107-47.68 16.107-23.595 0-40.597-8.448-51.008-25.323-10.432-16.896-15.637-44.267-15.637-82.112 0-27.968 2.645-54.4 7.957-79.296 5.291-24.896 12.821-46.549 22.549-64.981 9.749-18.432 21.611-33.003 35.627-43.755s29.909-16.107 47.68-16.107c23.595 0 40.597 8.277 51.008 24.811 10.432 16.555 15.637 44.096 15.637 82.624-0.021 27.968-2.667 54.315-7.957 79.040zM1696.341 530.411c-6.336 25.579-15.125 48.341-26.411 68.309-11.285 19.947-24.704 36.075-40.256 48.341s-32.576 18.411-51.029 18.411c-10.944 0-22.485-1.707-34.603-5.12-12.139-3.392-23.168-9.024-33.067-16.875l15.893-127.915c6.485-22.165 14.613-42.987 24.363-62.421s20.16-36.395 31.275-50.901c11.115-14.485 22.635-25.92 34.603-34.283s23.424-12.544 34.347-12.544c16.405 0 29.568 7.68 39.488 23.019 9.92 15.36 14.869 39.915 14.869 73.664 0 26.645-3.157 52.736-9.472 78.315zM2393.109 539.371c-5.312 24.725-12.821 46.379-22.549 64.981-9.749 18.603-21.632 33.259-35.627 44.011-14.016 10.731-29.909 16.107-47.68 16.107-23.595 0-40.597-8.448-51.008-25.323-10.432-16.896-15.637-44.267-15.637-82.112 0-27.968 2.645-54.4 7.957-79.296 5.291-24.896 12.821-46.549 22.571-64.981 9.728-18.432 21.611-33.003 35.627-43.755s29.909-16.107 47.68-16.107c23.595 0 40.576 8.277 51.008 24.811 10.432 16.555 15.637 44.096 15.637 82.624-0.021 27.968-2.688 54.315-7.979 79.040z"></path>
</symbol>
<symbol id="ico-menu" viewBox="0 0 1024 1024">
	<title>menu</title>
	<path class="path1" d="M42.667 128v128h938.667v-128h-938.667z"></path>
	<path class="path2" d="M42.667 452.267v128h938.667v-128h-938.667z"></path>
	<path class="path3" d="M42.667 768v128h938.667v-128h-938.667z"></path>
</symbol>
<symbol id="ico-im" viewBox="0 0 1024 1024">
	<title>im</title>
	<path class="path1" d="M155.051 571.904c-30.315 71.019-35.243 138.88-10.88 151.424 16.725 8.811 42.987-11.072 67.584-47.552 9.771 39.701 33.92 75.712 68.373 104.576-36.16 13.312-59.712 34.987-59.712 59.605 0 40.363 63.851 73.109 142.656 73.109 71.061 0 129.899-26.581 140.8-61.483 2.901-0.107 14.144-0.107 16.96 0 10.88 34.901 69.803 61.483 140.885 61.483 78.805 0 142.677-32.747 142.677-73.109 0-24.619-23.573-46.293-59.712-59.605 34.347-28.864 58.603-64.875 68.245-104.576 24.576 36.459 50.837 56.363 67.563 47.552 24.363-12.544 19.541-80.405-10.773-151.424-23.787-55.787-56.128-96.917-80.811-106.005 0.469-3.456 0.555-7.147 0.555-10.731 0-21.589-6.059-41.472-16.277-57.685 0.107-1.237 0.107-2.581 0.107-3.797 0-9.963-2.347-19.243-6.4-27.285-6.187-145.152-101.013-260.331-254.485-260.331-153.579 0-248.448 115.157-254.613 260.331-4.139 8.043-6.507 17.323-6.507 27.285 0 1.237 0.107 2.581 0.107 3.797-10.112 16.192-16.192 36.096-16.192 57.685 0 3.584 0.107 7.147 0.469 10.731-24.491 9.088-56.939 50.219-80.619 106.005v0z"></path>
</symbol>
</defs>
</svg>
